# xmcd
#
# Track frame offsets: 
#        150
#        14275
#        27336
#        41714
#        53964
#        68693
#        81878
#        95486
#        108969
#
# Disc length: 1640 seconds
#
# Revision: 0
# Processed by: cddbd v1.5.2PL0 Copyright (c) Steve Scherf et al.
# Submitted via: ExactAudioCopy v0.95b4
#
DISCID=6d066609
DTITLE=The Commodores - Rise Up
DYEAR=2004
DGENRE=Blues
TTITLE0=Rise Up
TTITLE1=Cowboys to Girls
TTITLE2=I Know I'm Losing You
TTITLE3=Who's making Love
TTITLE4=Sing A Simple Song
TTITLE5=Baby This is Forever
TTITLE6=Love Canoe
TTITLE7=Come By Here
TTITLE8=Keep on Dancing
EXTD=
EXTT0=
EXTT1=
EXTT2=
EXTT3=
EXTT4=
EXTT5=
EXTT6=
EXTT7=
EXTT8=
PLAYORDER=
